
        <svg xmlns="http://www.w3.org/2000/svg" xmlns:xlink="http://www.w3.org/1999/xlink" version="1.1" width="3154.307742318101" height="615.2510094592905" viewBox="0 0 3154.307742318101 615.2510094592905">
			
			<g transform="scale(7.71538711590505) translate(10, 10)">
				<defs id="SvgjsDefs1027"/><g id="SvgjsG1028" featureKey="nameLeftFeature-0" transform="matrix(2.7094499810181287,0,0,2.7094499810181287,0,-4.7935944157834385)" fill="#000"><path d="M2.96 20.16 l-0.44 0 c-1.4 0 -2.52 -1.12 -2.52 -2.52 l0 -9.64 c0 -1.4 1.12 -2.54 2.52 -2.54 l0.44 0 c1.4 0 2.52 1.14 2.52 2.54 l0 1.02 l-1.96 0 l0 -1.02 c0 -0.34 -0.24 -0.58 -0.56 -0.58 l-0.44 0 c-0.3 0 -0.58 0.24 -0.58 0.58 l0 9.64 c0 0.3 0.28 0.58 0.58 0.58 l0.44 0 c0.32 0 0.56 -0.28 0.56 -0.58 l0 -5.2 l-1.12 0 l0 -1.94 l3.08 0 l0 7.14 c0 1.4 -1.12 2.52 -2.52 2.52 z M13.7345 20.04 l-2.04 0 l-1.1 -3.02 l-0.44 0 l0 3.02 l-1.9 0 l0 -14.32 l2.98 0 c1.32 0 2.38 1.06 2.38 2.38 l0 6.54 c0 0.86 -0.44 1.6 -1.12 2.02 z M10.1545 7.619999999999999 l0 7.5 l1.08 0 c0.26 0 0.48 -0.22 0.48 -0.48 l0 -6.54 c0 -0.26 -0.22 -0.48 -0.48 -0.48 l-1.08 0 z M19.209 20.02 c-1.5 0 -2.7 -1.22 -2.7 -2.7 l0 -8.98 c0 -1.48 1.2 -2.68 2.7 -2.68 c1.48 0 2.68 1.2 2.68 2.68 l0 8.98 c0 1.48 -1.2 2.7 -2.68 2.7 z M19.209 7.5600000000000005 c-0.44 0 -0.78 0.36 -0.78 0.78 l0 8.98 c0 0.44 0.34 0.78 0.78 0.78 c0.42 0 0.78 -0.34 0.78 -0.78 l0 -8.98 c0 -0.42 -0.36 -0.78 -0.78 -0.78 z M32.183499999999995 5.720000000000001 l1.92 0 l-1.86 14.28 l-1.98 0 l-1 -7.16 l-0.94 7.16 l-1.98 0 l-2 -14.28 l1.92 0 l1.04 7.36 l0.96 -7.36 l1.92 0 l1.04 7.36 z M43.798 5.68 l0 1.92 l-2.38 0 l0 12.42 l-1.92 0 l0 -12.42 l-2.62 0 l0 -1.92 l6.92 0 z M49.832499999999996 5.720000000000001 l1.9 0 l0 14.26 l-1.9 0 l0 -7.54 l-1.7 0 l0 7.54 l-1.9 0 l0 -14.26 l1.9 0 l0 4.84 l1.7 0 l0 -4.84 z"/></g><g id="SvgjsG1029" featureKey="inlineSymbolFeature-0" transform="matrix(0.9334902372213932,0,0,0.9334902372213932,130.1283124089154,-16.802824269985077)" fill="#000"><path xmlns="http://www.w3.org/2000/svg" d="M33,82c0.6,0,1-0.4,1-1c0-13.1,8.1-21.4,16.7-30.2C59.2,42,68,33,68,19c0-0.6-0.4-1-1-1s-1,0.4-1,1  c0,13.2-8.1,21.5-16.7,30.4C40.8,58.1,32,67.1,32,81C32,81.6,32.4,82,33,82z"/><path xmlns="http://www.w3.org/2000/svg" d="M67,82c0.6,0,1-0.4,1-1c0-11.7-5.9-19.8-12.3-26.7c-0.4-0.4-1-0.4-1.4-0.1c-0.4,0.4-0.4,1-0.1,1.4  C60.4,62.3,66,69.9,66,81C66,81.6,66.4,82,67,82z"/><path xmlns="http://www.w3.org/2000/svg" d="M33,18c-0.6,0-1,0.4-1,1c0,11.7,5.9,19.8,12.3,26.7c0.2,0.2,0.5,0.3,0.7,0.3c0.2,0,0.5-0.1,0.7-0.3  c0.4-0.4,0.4-1,0.1-1.4C39.6,37.7,34,30.1,34,19C34,18.4,33.6,18,33,18z"/><path xmlns="http://www.w3.org/2000/svg" d="M38,78c0,0.6,0.4,1,1,1h22c0.6,0,1-0.4,1-1s-0.4-1-1-1H39C38.4,77,38,77.4,38,78z"/><path xmlns="http://www.w3.org/2000/svg" d="M39,73c0,0.6,0.4,1,1,1h20c0.6,0,1-0.4,1-1s-0.4-1-1-1H40C39.4,72,39,72.4,39,73z"/><path xmlns="http://www.w3.org/2000/svg" d="M41,68c0,0.6,0.4,1,1,1h16c0.6,0,1-0.4,1-1s-0.4-1-1-1H42C41.4,67,41,67.4,41,68z"/><path xmlns="http://www.w3.org/2000/svg" d="M44,63c0,0.6,0.4,1,1,1h10c0.6,0,1-0.4,1-1s-0.4-1-1-1H45C44.4,62,44,62.4,44,63z"/><path xmlns="http://www.w3.org/2000/svg" d="M51,59c0.6,0,1-0.4,1-1s-0.4-1-1-1h-2c-0.6,0-1,0.4-1,1s0.4,1,1,1H51z"/><path xmlns="http://www.w3.org/2000/svg" d="M62,22c0-0.6-0.4-1-1-1H39c-0.6,0-1,0.4-1,1s0.4,1,1,1h22C61.6,23,62,22.6,62,22z"/><path xmlns="http://www.w3.org/2000/svg" d="M61,27c0-0.6-0.4-1-1-1H40c-0.6,0-1,0.4-1,1s0.4,1,1,1h20C60.6,28,61,27.6,61,27z"/><path xmlns="http://www.w3.org/2000/svg" d="M59,32c0-0.6-0.4-1-1-1H42c-0.6,0-1,0.4-1,1s0.4,1,1,1h16C58.6,33,59,32.6,59,32z"/><path xmlns="http://www.w3.org/2000/svg" d="M56,37c0-0.6-0.4-1-1-1H45c-0.6,0-1,0.4-1,1s0.4,1,1,1h10C55.6,38,56,37.6,56,37z"/><path xmlns="http://www.w3.org/2000/svg" d="M49,41c-0.6,0-1,0.4-1,1s0.4,1,1,1h2c0.6,0,1-0.4,1-1s-0.4-1-1-1H49z"/></g><g id="SvgjsG1030" featureKey="nameRightFeature-0" transform="matrix(2.7774695756975705,0,0,2.7774695756975705,197.96150223180013,-5.776025388777249)" fill="#000"><path d="M11.0945 20 l-0.72 -4.94 l-2.02 0 l-0.66 4.94 l-1.92 0 l2.16 -14.3 l2.58 0 l2.5 14.3 l-1.92 0 z M8.6145 13.16 l1.48 0 l-0.76 -5.2 z M18.469 19.96 c-1.48 0 -2.68 -1.2 -2.68 -2.68 l0 -8.88 c0 -1.48 1.2 -2.68 2.68 -2.68 s2.68 1.2 2.68 2.68 l0 0.8 l-1.9 0 l0 -0.8 c0 -0.42 -0.36 -0.78 -0.78 -0.78 s-0.78 0.36 -0.78 0.78 l0 8.88 c0 0.42 0.36 0.78 0.78 0.78 s0.78 -0.36 0.78 -0.78 l0 -1.28 l1.9 0 l0 1.28 c0 1.48 -1.2 2.68 -2.68 2.68 z M29.2435 20 l-0.72 -4.94 l-2.02 0 l-0.66 4.94 l-1.92 0 l2.16 -14.3 l2.58 0 l2.5 14.3 l-1.92 0 z M26.7635 13.16 l1.48 0 l-0.76 -5.2 z M36.438 20.02 l-2.5 0 l0 -14.26 l2.5 0 c1.7 0 3.06 1.38 3.06 3.08 l0 8.1 c0 0.82 -0.32 1.6 -0.9 2.18 s-1.34 0.9 -2.16 0.9 z M35.838 7.68 l0 10.42 l0.6 0 c0.3 0 0.6 -0.12 0.82 -0.34 s0.34 -0.5 0.34 -0.82 l0 -8.1 c0 -0.64 -0.52 -1.16 -1.16 -1.16 l-0.6 0 z M46.932500000000005 12.46 l-2.76 0 l0 5.64 l2.78 0 l0 1.9 l-4.68 0 l0 -14.28 l4.68 0 l0 1.9 l-2.78 0 l0 2.94 l2.76 0 l0 1.9 z M55.527 5.68 l3.34 0 l0 14.28 l-1.88 0 l0 -11.3 l-1.78 11.34 l-0.74 0 l-0.18 -0.04 l-0.16 0.04 l-0.74 0 l-1.76 -11.34 l0 11.3 l-1.9 0 l0 -14.28 l3.36 0 l1.22 8.08 z M68.7215 5.720000000000001 l-2.68 8.68 l0 5.6 l-1.94 0 l0 -5.62 l-2.46 -8.66 l2 0 l1.46 5.14 l1.6 -5.14 l2.02 0 z"/></g>
			</g>
		</svg>
	