<?xml version="1.0" encoding="UTF-8"?>
<svg width="24" height="24" viewBox="0 0 24 24" fill="none" xmlns="http://www.w3.org/2000/svg">
  <path d="M20.47 2H3.53C2.64 2 2 2.64 2 3.53V20.47C2 21.36 2.64 22 3.53 22H20.47C21.36 22 22 21.36 22 20.47V3.53C22 2.64 21.36 2 20.47 2ZM8.09 18.74H5.07V9.42H8.09V18.74ZM6.58 8.13C5.61 8.13 4.82 7.34 4.82 6.37C4.82 5.4 5.61 4.61 6.58 4.61C7.55 4.61 8.34 5.4 8.34 6.37C8.34 7.34 7.55 8.13 6.58 8.13ZM18.91 18.74H15.89V14.13C15.89 13.01 15.87 11.53 14.28 11.53C12.67 11.53 12.42 12.78 12.42 14.07V18.74H9.4V9.42H12.27V10.71H12.31C12.77 9.96 13.76 9.17 15.27 9.17C18.34 9.17 18.91 11.2 18.91 13.82V18.74Z" fill="currentColor"/>
</svg>