<?xml version="1.0" encoding="UTF-8"?>
<svg width="24" height="24" viewBox="0 0 24 24" fill="none" xmlns="http://www.w3.org/2000/svg">
  <path d="M19.59 6.69C18.6795 6.69682 17.7974 6.39651 17.07 5.83C16.4513 5.30464 15.9786 4.63369 15.6988 3.87682C15.419 3.11995 15.3419 2.30163 15.4751 1.50666C15.6084 0.711688 15.9475 -0.0316895 16.46 -0.66H13.21V10.39L13.2 16.31C13.2 17.0807 12.977 17.8342 12.5557 18.4733C12.1344 19.1124 11.5341 19.6099 10.8301 19.9061C10.1261 20.2023 9.35264 20.2845 8.60339 20.1422C7.85414 19.9999 7.16509 19.6396 6.62077 19.1062C6.07645 18.5728 5.70092 17.8915 5.54203 17.1462C5.38315 16.401 5.44837 15.6275 5.73002 14.9181C6.01166 14.2087 6.49761 13.5981 7.12901 13.1634C7.76041 12.7286 8.50935 12.4897 9.28 12.44V9.15C7.92513 9.21166 6.61852 9.63858 5.48286 10.3897C4.34719 11.1408 3.42338 12.1892 2.80446 13.4256C2.18554 14.662 1.89208 16.0421 1.95125 17.4293C2.01041 18.8165 2.42037 20.1647 3.14358 21.3394C3.86679 22.5142 4.87947 23.4742 6.07873 24.1321C7.278 24.7901 8.62111 25.1239 9.99045 25.1051C11.3598 25.0863 12.693 24.7155 13.8734 24.0189C15.0538 23.3223 16.0392 22.3295 16.7291 21.1303C17.419 19.9311 17.7901 18.5683 17.81 17.18L17.79 8.91C18.9011 9.71556 20.2146 10.1517 21.57 10.17V6.91C21.0492 6.90318 20.5323 6.82774 20.0371 6.68599C19.8898 6.69 19.74 6.69 19.59 6.69Z" fill="currentColor"/>
</svg>